<svg xmlns="http://www.w3.org/2000/svg" xmlns:xlink="http://www.w3.org/1999/xlink" x="0px" y="0px" viewBox="0 0 50 50" xml:space="preserve"><path d="M25,25c-6.9,0-12.5-5.6-12.5-12.5S18.1,0,25,0s12.5,5.6,12.5,12.5S31.9,25,25,25z M25,4.2c-4.6,0-8.3,3.7-8.3,8.3 s3.7,8.3,8.3,8.3c4.6,0,8.3-3.7,8.3-8.3S29.6,4.2,25,4.2z"></path><path d="M38.3,50H11.7c-3.2,0-6.1-1.8-7.5-4.7c-1.4-2.9-1-6.3,0.9-8.8c4.8-6.1,11.8-9.4,19.9-9.4c8.1,0,15.1,3.3,19.9,9.4 c2,2.5,2.3,5.9,0.9,8.8C44.4,48.2,41.5,50,38.3,50z M25,31.3c-6.7,0-12.6,2.8-16.6,7.8c-1,1.3-1.2,2.9-0.5,4.4 c0.7,1.5,2.1,2.4,3.8,2.4h26.6c1.6,0,3-0.9,3.8-2.4c0.7-1.5,0.5-3.1-0.5-4.4C37.6,34,31.7,31.3,25,31.3z"></path></svg>